<svg width="334" height="334" viewBox="0 0 334 334" fill="none" xmlns="http://www.w3.org/2000/svg">
<rect width="333.33" height="333.33" fill="#2D2D30"/>
<path d="M130.652 112.649L114.26 132.893L166.168 197L218.077 132.893L201.685 112.649H130.652Z" fill="#2D2D30" stroke="#4B4B50"/>
<path d="M115.882 132.114H214.833" stroke="#4B4B50" stroke-linecap="square"/>
<path d="M132.104 114.271L139.598 132.114M201.856 114.271L194.718 130.492M139.598 132.114L166.169 195.378L194.718 130.492M139.598 132.114L166.169 114.271L194.718 130.492" stroke="#4B4B50" stroke-linecap="square"/>
<path d="M120.106 301.26C119.88 301.26 119.672 301.191 119.482 301.052C119.308 300.913 119.222 300.714 119.222 300.454V290.574C119.222 290.279 119.308 290.063 119.482 289.924C119.672 289.768 119.88 289.69 120.106 289.69C120.331 289.69 120.53 289.768 120.704 289.924C120.894 290.063 120.99 290.279 120.99 290.574V300.454C120.99 300.714 120.894 300.913 120.704 301.052C120.53 301.191 120.331 301.26 120.106 301.26ZM126.642 301.26C125.879 301.26 125.186 301.087 124.562 300.74C123.955 300.393 123.478 299.917 123.132 299.31C122.785 298.686 122.612 297.993 122.612 297.23C122.612 296.485 122.785 295.817 123.132 295.228C123.478 294.639 123.955 294.179 124.562 293.85C125.186 293.503 125.879 293.33 126.642 293.33C127.404 293.33 128.089 293.503 128.696 293.85C129.302 294.179 129.779 294.639 130.126 295.228C130.49 295.817 130.672 296.485 130.672 297.23C130.672 297.993 130.49 298.686 130.126 299.31C129.779 299.917 129.302 300.393 128.696 300.74C128.089 301.087 127.404 301.26 126.642 301.26ZM126.642 299.648C127.318 299.648 127.864 299.431 128.28 298.998C128.696 298.547 128.904 297.958 128.904 297.23C128.904 296.537 128.696 295.982 128.28 295.566C127.864 295.15 127.318 294.942 126.642 294.942C125.948 294.942 125.394 295.15 124.978 295.566C124.579 295.982 124.38 296.537 124.38 297.23C124.38 297.958 124.579 298.547 124.978 298.998C125.394 299.431 125.948 299.648 126.642 299.648ZM135.934 301.26C134.772 301.26 133.819 300.887 133.074 300.142C132.328 299.397 131.956 298.426 131.956 297.23C131.956 296.467 132.129 295.791 132.476 295.202C132.822 294.613 133.29 294.153 133.88 293.824C134.486 293.495 135.171 293.33 135.934 293.33C136.974 293.33 137.858 293.573 138.586 294.058C138.828 294.214 138.95 294.431 138.95 294.708C138.95 294.985 138.863 295.202 138.69 295.358C138.516 295.514 138.317 295.592 138.092 295.592C137.936 295.592 137.797 295.557 137.676 295.488C137.034 295.055 136.436 294.864 135.882 294.916C135.206 294.985 134.677 295.219 134.296 295.618C133.914 295.999 133.724 296.545 133.724 297.256C133.724 298.001 133.923 298.591 134.322 299.024C134.738 299.44 135.318 299.648 136.064 299.648C136.722 299.648 137.381 299.397 138.04 298.894C138.178 298.773 138.36 298.712 138.586 298.712C138.846 298.712 139.036 298.816 139.158 299.024C139.296 299.215 139.366 299.397 139.366 299.57C139.366 299.813 139.253 300.038 139.028 300.246C138.594 300.627 138.118 300.887 137.598 301.026C137.078 301.182 136.523 301.26 135.934 301.26ZM144.158 301.26C143.412 301.26 142.745 301.087 142.156 300.74C141.566 300.393 141.107 299.917 140.778 299.31C140.448 298.686 140.284 297.993 140.284 297.23C140.284 296.485 140.448 295.817 140.778 295.228C141.107 294.639 141.566 294.179 142.156 293.85C142.745 293.503 143.412 293.33 144.158 293.33C144.643 293.33 145.076 293.417 145.458 293.59C145.839 293.746 146.168 293.954 146.446 294.214C146.48 293.971 146.584 293.789 146.758 293.668C146.931 293.529 147.122 293.46 147.33 293.46C147.555 293.46 147.754 293.538 147.928 293.694C148.118 293.833 148.214 294.049 148.214 294.344V300.454C148.214 300.714 148.118 300.913 147.928 301.052C147.754 301.191 147.555 301.26 147.33 301.26C147.104 301.26 146.896 301.191 146.706 301.052C146.532 300.913 146.446 300.714 146.446 300.454V300.35C146.168 300.627 145.839 300.844 145.458 301C145.076 301.173 144.643 301.26 144.158 301.26ZM144.314 299.648C144.972 299.648 145.492 299.431 145.874 298.998C146.255 298.547 146.446 297.958 146.446 297.23C146.446 296.537 146.255 295.982 145.874 295.566C145.492 295.15 144.972 294.942 144.314 294.942C143.638 294.942 143.092 295.15 142.676 295.566C142.26 295.982 142.052 296.537 142.052 297.23C142.052 297.958 142.26 298.547 142.676 298.998C143.092 299.431 143.638 299.648 144.314 299.648ZM151.057 301.26C150.831 301.26 150.623 301.191 150.433 301.052C150.259 300.913 150.173 300.714 150.173 300.454V290.574C150.173 290.279 150.259 290.063 150.433 289.924C150.623 289.768 150.831 289.69 151.057 289.69C151.282 289.69 151.481 289.768 151.655 289.924C151.845 290.063 151.941 290.279 151.941 290.574V300.454C151.941 300.714 151.845 300.913 151.655 301.052C151.481 301.191 151.282 301.26 151.057 301.26ZM161.992 301.26C161.489 301.26 160.978 301.191 160.458 301.052C159.938 300.931 159.479 300.731 159.08 300.454C158.872 300.263 158.768 300.055 158.768 299.83C158.768 299.605 158.855 299.405 159.028 299.232C159.219 299.059 159.427 298.972 159.652 298.972C159.773 298.972 159.895 299.007 160.016 299.076C160.328 299.267 160.683 299.423 161.082 299.544C161.498 299.648 161.888 299.7 162.252 299.7C162.599 299.7 162.893 299.639 163.136 299.518C163.396 299.397 163.526 299.197 163.526 298.92C163.526 298.643 163.405 298.435 163.162 298.296C162.919 298.157 162.503 298.053 161.914 297.984C161.671 297.949 161.377 297.906 161.03 297.854C160.701 297.802 160.371 297.707 160.042 297.568C159.713 297.429 159.435 297.221 159.21 296.944C158.985 296.667 158.872 296.294 158.872 295.826C158.872 295.063 159.149 294.457 159.704 294.006C160.276 293.555 161.039 293.33 161.992 293.33C162.547 293.33 163.067 293.399 163.552 293.538C164.055 293.677 164.427 293.85 164.67 294.058C164.861 294.214 164.956 294.396 164.956 294.604C164.956 294.829 164.878 295.029 164.722 295.202C164.566 295.375 164.375 295.462 164.15 295.462C164.029 295.462 163.916 295.436 163.812 295.384C163.535 295.228 163.223 295.115 162.876 295.046C162.547 294.959 162.226 294.916 161.914 294.916C161.55 294.916 161.238 294.977 160.978 295.098C160.735 295.202 160.614 295.375 160.614 295.618C160.614 295.791 160.683 295.947 160.822 296.086C160.978 296.207 161.368 296.311 161.992 296.398C162.287 296.433 162.616 296.485 162.98 296.554C163.361 296.623 163.725 296.736 164.072 296.892C164.419 297.031 164.705 297.256 164.93 297.568C165.155 297.88 165.268 298.305 165.268 298.842C165.268 299.397 165.112 299.856 164.8 300.22C164.488 300.567 164.081 300.827 163.578 301C163.093 301.173 162.564 301.26 161.992 301.26ZM169.767 301.26C169.091 301.26 168.536 301.052 168.103 300.636C167.67 300.22 167.453 299.596 167.453 298.764V295.462C167.453 295.289 167.366 295.202 167.193 295.202H166.725C166.5 295.202 166.309 295.133 166.153 294.994C165.997 294.838 165.919 294.647 165.919 294.422C165.919 294.179 165.997 293.98 166.153 293.824C166.309 293.668 166.5 293.59 166.725 293.59H167.193C167.366 293.59 167.453 293.503 167.453 293.33V291.146C167.453 290.903 167.531 290.713 167.687 290.574C167.86 290.418 168.068 290.34 168.311 290.34C168.571 290.34 168.779 290.418 168.935 290.574C169.108 290.713 169.195 290.903 169.195 291.146V293.33C169.195 293.503 169.282 293.59 169.455 293.59H170.859C171.067 293.59 171.249 293.668 171.405 293.824C171.561 293.98 171.639 294.179 171.639 294.422C171.639 294.647 171.561 294.838 171.405 294.994C171.266 295.133 171.076 295.202 170.833 295.202H169.455C169.282 295.202 169.195 295.289 169.195 295.462V298.53C169.195 299.258 169.49 299.622 170.079 299.622C170.252 299.622 170.434 299.596 170.625 299.544C170.816 299.492 170.946 299.466 171.015 299.466C171.258 299.466 171.44 299.544 171.561 299.7C171.7 299.856 171.769 300.038 171.769 300.246C171.769 300.402 171.726 300.558 171.639 300.714C171.552 300.853 171.414 300.957 171.223 301.026C171.032 301.095 170.79 301.147 170.495 301.182C170.218 301.234 169.975 301.26 169.767 301.26ZM176.585 301.26C175.822 301.26 175.129 301.087 174.505 300.74C173.898 300.393 173.422 299.917 173.075 299.31C172.728 298.686 172.555 297.993 172.555 297.23C172.555 296.485 172.728 295.817 173.075 295.228C173.422 294.639 173.898 294.179 174.505 293.85C175.129 293.503 175.822 293.33 176.585 293.33C177.348 293.33 178.032 293.503 178.639 293.85C179.246 294.179 179.722 294.639 180.069 295.228C180.433 295.817 180.615 296.485 180.615 297.23C180.615 297.993 180.433 298.686 180.069 299.31C179.722 299.917 179.246 300.393 178.639 300.74C178.032 301.087 177.348 301.26 176.585 301.26ZM176.585 299.648C177.261 299.648 177.807 299.431 178.223 298.998C178.639 298.547 178.847 297.958 178.847 297.23C178.847 296.537 178.639 295.982 178.223 295.566C177.807 295.15 177.261 294.942 176.585 294.942C175.892 294.942 175.337 295.15 174.921 295.566C174.522 295.982 174.323 296.537 174.323 297.23C174.323 297.958 174.522 298.547 174.921 298.998C175.337 299.431 175.892 299.648 176.585 299.648ZM183.933 297.152V300.454C183.933 300.714 183.838 300.913 183.647 301.052C183.474 301.191 183.274 301.26 183.049 301.26C182.824 301.26 182.616 301.191 182.425 301.052C182.252 300.913 182.165 300.714 182.165 300.454V294.344C182.165 294.049 182.252 293.833 182.425 293.694C182.616 293.538 182.824 293.46 183.049 293.46C183.274 293.46 183.474 293.538 183.647 293.694C183.838 293.833 183.933 294.049 183.933 294.344V294.448C184.176 294.119 184.488 293.85 184.869 293.642C185.268 293.434 185.684 293.33 186.117 293.33C186.325 293.33 186.533 293.356 186.741 293.408C186.949 293.46 187.105 293.564 187.209 293.72C187.313 293.876 187.365 294.049 187.365 294.24C187.365 294.465 187.287 294.673 187.131 294.864C186.992 295.037 186.784 295.124 186.507 295.124C186.386 295.124 186.256 295.107 186.117 295.072C185.996 295.037 185.84 295.02 185.649 295.02C185.146 295.02 184.73 295.211 184.401 295.592C184.089 295.973 183.933 296.493 183.933 297.152ZM191.638 301.26C190.893 301.26 190.225 301.087 189.636 300.74C189.047 300.393 188.587 299.917 188.258 299.31C187.929 298.686 187.764 297.993 187.764 297.23C187.764 296.485 187.929 295.817 188.258 295.228C188.587 294.639 189.047 294.179 189.636 293.85C190.225 293.503 190.893 293.33 191.638 293.33C192.123 293.33 192.557 293.417 192.938 293.59C193.319 293.746 193.649 293.954 193.926 294.214C193.961 293.971 194.065 293.789 194.238 293.668C194.411 293.529 194.602 293.46 194.81 293.46C195.035 293.46 195.235 293.538 195.408 293.694C195.599 293.833 195.694 294.049 195.694 294.344V300.454C195.694 300.714 195.599 300.913 195.408 301.052C195.235 301.191 195.035 301.26 194.81 301.26C194.585 301.26 194.377 301.191 194.186 301.052C194.013 300.913 193.926 300.714 193.926 300.454V300.35C193.649 300.627 193.319 300.844 192.938 301C192.557 301.173 192.123 301.26 191.638 301.26ZM191.794 299.648C192.453 299.648 192.973 299.431 193.354 298.998C193.735 298.547 193.926 297.958 193.926 297.23C193.926 296.537 193.735 295.982 193.354 295.566C192.973 295.15 192.453 294.942 191.794 294.942C191.118 294.942 190.572 295.15 190.156 295.566C189.74 295.982 189.532 296.537 189.532 297.23C189.532 297.958 189.74 298.547 190.156 298.998C190.572 299.431 191.118 299.648 191.794 299.648ZM200.851 304.64C200.487 304.64 200.08 304.605 199.629 304.536C199.179 304.467 198.737 304.319 198.303 304.094C197.974 303.921 197.809 303.652 197.809 303.288C197.809 303.08 197.879 302.889 198.017 302.716C198.173 302.543 198.364 302.456 198.589 302.456C198.745 302.456 198.901 302.499 199.057 302.586C199.387 302.759 199.716 302.881 200.045 302.95C200.375 303.019 200.695 303.054 201.007 303.054C201.631 303.054 202.169 302.889 202.619 302.56C203.07 302.248 203.295 301.745 203.295 301.052V300.324C203.001 300.619 202.654 300.844 202.255 301C201.874 301.173 201.441 301.26 200.955 301.26C200.245 301.26 199.595 301.087 199.005 300.74C198.433 300.393 197.974 299.917 197.627 299.31C197.298 298.703 197.133 298.019 197.133 297.256C197.133 296.493 197.298 295.809 197.627 295.202C197.957 294.595 198.407 294.119 198.979 293.772C199.551 293.425 200.201 293.278 200.929 293.33C201.432 293.365 201.874 293.469 202.255 293.642C202.654 293.798 203.001 294.015 203.295 294.292C203.295 294.049 203.373 293.85 203.529 293.694C203.703 293.538 203.919 293.46 204.179 293.46C204.439 293.46 204.647 293.538 204.803 293.694C204.977 293.85 205.063 294.049 205.063 294.292V301.104C205.063 301.901 204.873 302.56 204.491 303.08C204.127 303.617 203.625 304.007 202.983 304.25C202.342 304.51 201.631 304.64 200.851 304.64ZM201.163 299.648C201.822 299.648 202.342 299.431 202.723 298.998C203.105 298.547 203.295 297.958 203.295 297.23C203.295 296.537 203.105 295.982 202.723 295.566C202.342 295.15 201.822 294.942 201.163 294.942C200.487 294.942 199.941 295.15 199.525 295.566C199.109 295.982 198.901 296.545 198.901 297.256C198.901 297.949 199.101 298.521 199.499 298.972C199.915 299.423 200.47 299.648 201.163 299.648ZM210.763 301.26C209.463 301.26 208.449 300.887 207.721 300.142C206.993 299.397 206.629 298.391 206.629 297.126C206.629 296.017 206.993 295.107 207.721 294.396C208.467 293.685 209.42 293.33 210.581 293.33C211.708 293.33 212.609 293.659 213.285 294.318C213.961 294.959 214.299 295.757 214.299 296.71C214.299 297.091 214.195 297.377 213.987 297.568C213.797 297.759 213.545 297.854 213.233 297.854H208.709C208.536 297.854 208.475 297.949 208.527 298.14C208.666 298.625 208.943 299.007 209.359 299.284C209.793 299.544 210.278 299.674 210.815 299.674C211.214 299.674 211.595 299.622 211.959 299.518C212.341 299.414 212.67 299.258 212.947 299.05C213.034 298.981 213.147 298.946 213.285 298.946C213.476 298.946 213.649 299.033 213.805 299.206C213.961 299.362 214.039 299.553 214.039 299.778C214.039 299.882 214.022 299.986 213.987 300.09C213.953 300.194 213.875 300.298 213.753 300.402C213.303 300.731 212.817 300.957 212.297 301.078C211.795 301.199 211.283 301.26 210.763 301.26ZM212.271 296.502C212.375 296.502 212.427 296.45 212.427 296.346C212.427 295.947 212.245 295.601 211.881 295.306C211.535 295.011 211.101 294.864 210.581 294.864C210.131 294.864 209.697 294.985 209.281 295.228C208.883 295.471 208.64 295.791 208.553 296.19C208.553 296.19 208.553 296.199 208.553 296.216C208.536 296.285 208.527 296.346 208.527 296.398C208.545 296.45 208.623 296.476 208.761 296.476L212.271 296.502Z" fill="#4B4B50"/>
</svg>
