<svg width="43" height="49" viewBox="0 0 43 49" fill="none" xmlns="http://www.w3.org/2000/svg">
<path d="M35.4216 20.0844C35.4216 18.1516 36.9884 16.5848 38.9212 16.5848V16.5848C40.8539 16.5848 42.4207 18.1516 42.4207 20.0844V38.7993C42.4207 40.732 40.8539 42.2988 38.9212 42.2988V42.2988C36.9884 42.2988 35.4216 40.732 35.4216 38.7993V20.0844Z" fill="#4B4B50"/>
<rect x="28.4225" y="13.9982" width="6.99907" height="33.4738" rx="3.49954" fill="#4B4B50"/>
<rect x="22.0322" y="11.1073" width="6.99907" height="36.3647" rx="3.49954" fill="#4B4B50"/>
<rect y="28.1271" width="6.99907" height="29.3893" rx="3.49954" transform="rotate(-47.4294 0 28.1271)" fill="#4B4B50"/>
<rect x="15.3374" width="6.99907" height="44.2767" rx="3.49954" fill="#4B4B50"/>
<path d="M15.4093 28.1484C15.5847 32.1111 10.4876 28.437 7.48329 25.7303C7.28616 25.5527 6.96887 25.692 6.96887 25.9574C6.96887 26.0444 7.00631 26.1273 7.07163 26.1848L14.9389 33.1119C15.0796 33.2358 15.2856 33.2505 15.4424 33.1478C15.5659 33.0669 15.6373 32.9268 15.6303 32.7794L15.4093 28.1484Z" fill="#4B4B50"/>
<circle cx="33.2915" cy="38.4949" r="9.12923" fill="#4B4B50"/>
<circle cx="25.0751" cy="38.647" r="9.12923" fill="#4B4B50"/>
<rect x="25.2274" y="43.2117" width="7.75984" height="4.41246" fill="#4B4B50"/>
<path d="M36 20.5L21 13V3L19.5 1.5H18L16.5 3V11V30L14.5 31.5L10.5 30.5L5 26L2.5 28.5L6 32L23.5 46H34.5L38.5 44L40.5 40.5V20.5H36Z" fill="#4B4B50" stroke="#4B4B50"/>
</svg>
