<svg width="175" height="31" viewBox="0 0 175 31" fill="none" xmlns="http://www.w3.org/2000/svg">
<rect width="175" height="31" fill="#26262A"/>
<path d="M12.954 20.26C12.4513 20.26 11.94 20.1907 11.42 20.052C10.9 19.9307 10.4406 19.7313 10.042 19.454C9.83396 19.2633 9.72996 19.0553 9.72996 18.83C9.72996 18.6047 9.81663 18.4053 9.98996 18.232C10.1806 18.0587 10.3886 17.972 10.614 17.972C10.7353 17.972 10.8566 18.0067 10.978 18.076C11.29 18.2667 11.6453 18.4227 12.044 18.544C12.46 18.648 12.85 18.7 13.214 18.7C13.5606 18.7 13.8553 18.6393 14.098 18.518C14.358 18.3967 14.488 18.1973 14.488 17.92C14.488 17.6427 14.3666 17.4347 14.124 17.296C13.8813 17.1573 13.4653 17.0533 12.876 16.984C12.6333 16.9493 12.3386 16.906 11.992 16.854C11.6626 16.802 11.3333 16.7067 11.004 16.568C10.6746 16.4293 10.3973 16.2213 10.172 15.944C9.94663 15.6667 9.83396 15.294 9.83396 14.826C9.83396 14.0633 10.1113 13.4567 10.666 13.006C11.238 12.5553 12.0006 12.33 12.954 12.33C13.5086 12.33 14.0286 12.3993 14.514 12.538C15.0166 12.6767 15.3893 12.85 15.632 13.058C15.8226 13.214 15.918 13.396 15.918 13.604C15.918 13.8293 15.84 14.0287 15.684 14.202C15.528 14.3753 15.3373 14.462 15.112 14.462C14.9906 14.462 14.878 14.436 14.774 14.384C14.4966 14.228 14.1846 14.1153 13.838 14.046C13.5086 13.9593 13.188 13.916 12.876 13.916C12.512 13.916 12.2 13.9767 11.94 14.098C11.6973 14.202 11.576 14.3753 11.576 14.618C11.576 14.7913 11.6453 14.9473 11.784 15.086C11.94 15.2073 12.33 15.3113 12.954 15.398C13.2486 15.4327 13.578 15.4847 13.942 15.554C14.3233 15.6233 14.6873 15.736 15.034 15.892C15.3806 16.0307 15.6666 16.256 15.892 16.568C16.1173 16.88 16.23 17.3047 16.23 17.842C16.23 18.3967 16.074 18.856 15.762 19.22C15.45 19.5667 15.0426 19.8267 14.54 20C14.0546 20.1733 13.526 20.26 12.954 20.26ZM21.405 20.26C20.105 20.26 19.091 19.8873 18.363 19.142C17.635 18.3967 17.271 17.3913 17.271 16.126C17.271 15.0167 17.635 14.1067 18.363 13.396C19.1083 12.6853 20.0616 12.33 21.223 12.33C22.3496 12.33 23.251 12.6593 23.927 13.318C24.603 13.9593 24.941 14.7567 24.941 15.71C24.941 16.0913 24.837 16.3773 24.629 16.568C24.4383 16.7587 24.187 16.854 23.875 16.854H19.351C19.1776 16.854 19.117 16.9493 19.169 17.14C19.3076 17.6253 19.585 18.0067 20.001 18.284C20.4343 18.544 20.9196 18.674 21.457 18.674C21.8556 18.674 22.237 18.622 22.601 18.518C22.9823 18.414 23.3116 18.258 23.589 18.05C23.6756 17.9807 23.7883 17.946 23.927 17.946C24.1176 17.946 24.291 18.0327 24.447 18.206C24.603 18.362 24.681 18.5527 24.681 18.778C24.681 18.882 24.6636 18.986 24.629 19.09C24.5943 19.194 24.5163 19.298 24.395 19.402C23.9443 19.7313 23.459 19.9567 22.939 20.078C22.4363 20.1993 21.925 20.26 21.405 20.26ZM22.913 15.502C23.017 15.502 23.069 15.45 23.069 15.346C23.069 14.9473 22.887 14.6007 22.523 14.306C22.1763 14.0113 21.743 13.864 21.223 13.864C20.7723 13.864 20.339 13.9853 19.923 14.228C19.5243 14.4707 19.2816 14.7913 19.195 15.19C19.195 15.19 19.195 15.1987 19.195 15.216C19.1776 15.2853 19.169 15.346 19.169 15.398C19.1863 15.45 19.2643 15.476 19.403 15.476L22.913 15.502ZM30.1079 20.26C29.3625 20.26 28.6952 20.0867 28.1059 19.74C27.5165 19.3933 27.0572 18.9167 26.7279 18.31C26.3985 17.686 26.2339 16.9927 26.2339 16.23C26.2339 15.4847 26.3985 14.8173 26.7279 14.228C27.0572 13.6387 27.5165 13.1793 28.1059 12.85C28.6952 12.5033 29.3625 12.33 30.1079 12.33C30.5932 12.33 31.0265 12.4167 31.4079 12.59C31.7892 12.746 32.1185 12.954 32.3959 13.214C32.4305 12.9713 32.5345 12.7893 32.7079 12.668C32.8812 12.5293 33.0719 12.46 33.2799 12.46C33.5052 12.46 33.7045 12.538 33.8779 12.694C34.0685 12.8327 34.1639 13.0493 34.1639 13.344V19.454C34.1639 19.714 34.0685 19.9133 33.8779 20.052C33.7045 20.1907 33.5052 20.26 33.2799 20.26C33.0545 20.26 32.8465 20.1907 32.6559 20.052C32.4825 19.9133 32.3959 19.714 32.3959 19.454V19.35C32.1185 19.6273 31.7892 19.844 31.4079 20C31.0265 20.1733 30.5932 20.26 30.1079 20.26ZM30.2639 18.648C30.9225 18.648 31.4425 18.4313 31.8239 17.998C32.2052 17.5473 32.3959 16.958 32.3959 16.23C32.3959 15.5367 32.2052 14.982 31.8239 14.566C31.4425 14.15 30.9225 13.942 30.2639 13.942C29.5879 13.942 29.0419 14.15 28.6259 14.566C28.2099 14.982 28.0019 15.5367 28.0019 16.23C28.0019 16.958 28.2099 17.5473 28.6259 17.998C29.0419 18.4313 29.5879 18.648 30.2639 18.648ZM37.891 16.152V19.454C37.891 19.714 37.7957 19.9133 37.605 20.052C37.4317 20.1907 37.2323 20.26 37.007 20.26C36.7817 20.26 36.5737 20.1907 36.383 20.052C36.2097 19.9133 36.123 19.714 36.123 19.454V13.344C36.123 13.0493 36.2097 12.8327 36.383 12.694C36.5737 12.538 36.7817 12.46 37.007 12.46C37.2323 12.46 37.4317 12.538 37.605 12.694C37.7957 12.8327 37.891 13.0493 37.891 13.344V13.448C38.1337 13.1187 38.4457 12.85 38.827 12.642C39.2257 12.434 39.6417 12.33 40.075 12.33C40.283 12.33 40.491 12.356 40.699 12.408C40.907 12.46 41.063 12.564 41.167 12.72C41.271 12.876 41.323 13.0493 41.323 13.24C41.323 13.4653 41.245 13.6733 41.089 13.864C40.9503 14.0373 40.7423 14.124 40.465 14.124C40.3437 14.124 40.2137 14.1067 40.075 14.072C39.9537 14.0373 39.7977 14.02 39.607 14.02C39.1043 14.02 38.6883 14.2107 38.359 14.592C38.047 14.9733 37.891 15.4933 37.891 16.152ZM45.7001 20.26C44.5388 20.26 43.5855 19.8873 42.8401 19.142C42.0948 18.3967 41.7221 17.426 41.7221 16.23C41.7221 15.4673 41.8955 14.7913 42.2421 14.202C42.5888 13.6127 43.0568 13.1533 43.6461 12.824C44.2528 12.4947 44.9375 12.33 45.7001 12.33C46.7401 12.33 47.6241 12.5727 48.3521 13.058C48.5948 13.214 48.7161 13.4307 48.7161 13.708C48.7161 13.9853 48.6295 14.202 48.4561 14.358C48.2828 14.514 48.0835 14.592 47.8581 14.592C47.7021 14.592 47.5635 14.5573 47.4421 14.488C46.8008 14.0547 46.2028 13.864 45.6481 13.916C44.9721 13.9853 44.4435 14.2193 44.0621 14.618C43.6808 14.9993 43.4901 15.5453 43.4901 16.256C43.4901 17.0013 43.6895 17.5907 44.0881 18.024C44.5041 18.44 45.0848 18.648 45.8301 18.648C46.4888 18.648 47.1475 18.3967 47.8061 17.894C47.9448 17.7727 48.1268 17.712 48.3521 17.712C48.6121 17.712 48.8028 17.816 48.9241 18.024C49.0628 18.2147 49.1321 18.3967 49.1321 18.57C49.1321 18.8127 49.0195 19.038 48.7941 19.246C48.3608 19.6273 47.8841 19.8873 47.3641 20.026C46.8441 20.182 46.2895 20.26 45.7001 20.26ZM51.4543 20.26C51.2289 20.26 51.0209 20.1907 50.8303 20.052C50.6569 19.9133 50.5703 19.714 50.5703 19.454V9.574C50.5703 9.27933 50.6569 9.06267 50.8303 8.924C51.0209 8.768 51.2289 8.69 51.4543 8.69C51.6796 8.69 51.8789 8.768 52.0523 8.924C52.2429 9.06267 52.3383 9.27933 52.3383 9.574V13.292C52.6156 12.9973 52.9796 12.7633 53.4303 12.59C53.8983 12.4167 54.3316 12.33 54.7303 12.33C55.6316 12.33 56.3943 12.642 57.0183 13.266C57.6596 13.89 57.9803 14.8087 57.9803 16.022V19.454C57.9803 19.714 57.8849 19.9133 57.6943 20.052C57.5036 20.1907 57.3043 20.26 57.0963 20.26C56.8709 20.26 56.6629 20.1907 56.4723 20.052C56.2989 19.9133 56.2123 19.714 56.2123 19.454V16.178C56.2123 15.4153 56.0389 14.852 55.6923 14.488C55.3629 14.124 54.9209 13.942 54.3663 13.942C53.6209 13.942 53.0923 14.176 52.7803 14.644C52.4856 15.0947 52.3383 15.5973 52.3383 16.152V19.454C52.3383 19.714 52.2429 19.9133 52.0523 20.052C51.8789 20.1907 51.6796 20.26 51.4543 20.26ZM66.7565 20.26C66.4965 20.26 66.2885 20.182 66.1325 20.026C65.9765 19.87 65.8985 19.6707 65.8985 19.428V14.462C65.8985 14.2887 65.8118 14.202 65.6385 14.202H65.0405C64.8152 14.202 64.6245 14.1327 64.4685 13.994C64.3125 13.838 64.2345 13.6473 64.2345 13.422C64.2345 13.1793 64.3125 12.98 64.4685 12.824C64.6245 12.668 64.8152 12.59 65.0405 12.59H65.6385C65.8118 12.59 65.8985 12.5033 65.8985 12.33V11.654C65.8985 10.7873 66.1238 10.1027 66.5745 9.6C67.0425 9.08 67.7012 8.82 68.5505 8.82C68.7412 8.82 68.9318 8.846 69.1225 8.898C69.3305 8.93267 69.4865 8.96733 69.5905 9.002C69.9198 9.12333 70.0845 9.366 70.0845 9.73C70.0845 10.0073 69.9978 10.224 69.8245 10.38C69.6685 10.5187 69.4778 10.588 69.2525 10.588C69.1312 10.588 69.0185 10.5707 68.9145 10.536C68.8105 10.5013 68.6632 10.484 68.4725 10.484C68.1778 10.484 67.9698 10.588 67.8485 10.796C67.7272 11.004 67.6665 11.3073 67.6665 11.706V12.33C67.6665 12.5033 67.7532 12.59 67.9265 12.59H69.0445C69.2525 12.59 69.4345 12.668 69.5905 12.824C69.7465 12.98 69.8245 13.1793 69.8245 13.422C69.8245 13.6473 69.7465 13.838 69.5905 13.994C69.4518 14.1327 69.2612 14.202 69.0185 14.202H67.9265C67.7532 14.202 67.6665 14.2887 67.6665 14.462V19.428C67.6665 19.6707 67.5798 19.87 67.4065 20.026C67.2332 20.182 67.0165 20.26 66.7565 20.26ZM74.7736 20.26C74.011 20.26 73.3176 20.0867 72.6936 19.74C72.087 19.3933 71.6103 18.9167 71.2636 18.31C70.917 17.686 70.7436 16.9927 70.7436 16.23C70.7436 15.4847 70.917 14.8173 71.2636 14.228C71.6103 13.6387 72.087 13.1793 72.6936 12.85C73.3176 12.5033 74.011 12.33 74.7736 12.33C75.5363 12.33 76.221 12.5033 76.8276 12.85C77.4343 13.1793 77.911 13.6387 78.2576 14.228C78.6216 14.8173 78.8036 15.4847 78.8036 16.23C78.8036 16.9927 78.6216 17.686 78.2576 18.31C77.911 18.9167 77.4343 19.3933 76.8276 19.74C76.221 20.0867 75.5363 20.26 74.7736 20.26ZM74.7736 18.648C75.4496 18.648 75.9956 18.4313 76.4116 17.998C76.8276 17.5473 77.0356 16.958 77.0356 16.23C77.0356 15.5367 76.8276 14.982 76.4116 14.566C75.9956 14.15 75.4496 13.942 74.7736 13.942C74.0803 13.942 73.5256 14.15 73.1096 14.566C72.711 14.982 72.5116 15.5367 72.5116 16.23C72.5116 16.958 72.711 17.5473 73.1096 17.998C73.5256 18.4313 74.0803 18.648 74.7736 18.648ZM82.1215 16.152V19.454C82.1215 19.714 82.0261 19.9133 81.8355 20.052C81.6621 20.1907 81.4628 20.26 81.2375 20.26C81.0121 20.26 80.8041 20.1907 80.6135 20.052C80.4401 19.9133 80.3535 19.714 80.3535 19.454V13.344C80.3535 13.0493 80.4401 12.8327 80.6135 12.694C80.8041 12.538 81.0121 12.46 81.2375 12.46C81.4628 12.46 81.6621 12.538 81.8355 12.694C82.0261 12.8327 82.1215 13.0493 82.1215 13.344V13.448C82.3641 13.1187 82.6761 12.85 83.0575 12.642C83.4561 12.434 83.8721 12.33 84.3055 12.33C84.5135 12.33 84.7215 12.356 84.9295 12.408C85.1375 12.46 85.2935 12.564 85.3975 12.72C85.5015 12.876 85.5535 13.0493 85.5535 13.24C85.5535 13.4653 85.4755 13.6733 85.3195 13.864C85.1808 14.0373 84.9728 14.124 84.6955 14.124C84.5741 14.124 84.4441 14.1067 84.3055 14.072C84.1841 14.0373 84.0281 14.02 83.8375 14.02C83.3348 14.02 82.9188 14.2107 82.5895 14.592C82.2775 14.9733 82.1215 15.4933 82.1215 16.152ZM91.3336 23.77C90.9869 23.77 90.6836 23.7267 90.4236 23.64C90.0423 23.5013 89.8516 23.2413 89.8516 22.86C89.8516 22.548 89.9643 22.3227 90.1896 22.184C90.3976 22.0453 90.5969 22.0107 90.7876 22.08C90.8743 22.0973 90.9523 22.106 91.0216 22.106C91.0909 22.1233 91.1603 22.132 91.2296 22.132C91.5243 22.132 91.7583 22.0367 91.9316 21.846C92.1049 21.6553 92.1916 21.3433 92.1916 20.91V13.136C92.1916 12.876 92.2869 12.6767 92.4776 12.538C92.6683 12.3993 92.8589 12.33 93.0496 12.33C93.2749 12.33 93.4743 12.408 93.6476 12.564C93.8383 12.7027 93.9336 12.8933 93.9336 13.136V20.962C93.9336 21.8633 93.6736 22.5567 93.1536 23.042C92.6509 23.5273 92.0443 23.77 91.3336 23.77ZM93.1276 10.9C92.7983 10.9 92.5123 10.796 92.2696 10.588C92.0443 10.3627 91.9316 10.094 91.9316 9.782C91.9316 9.48733 92.0443 9.236 92.2696 9.028C92.5123 8.80267 92.7983 8.69 93.1276 8.69C93.4396 8.69 93.7083 8.80267 93.9336 9.028C94.1589 9.236 94.2716 9.48733 94.2716 9.782C94.2716 10.094 94.1589 10.3627 93.9336 10.588C93.7083 10.796 93.4396 10.9 93.1276 10.9ZM99.7097 20.26C98.4097 20.26 97.3957 19.8873 96.6677 19.142C95.9397 18.3967 95.5757 17.3913 95.5757 16.126C95.5757 15.0167 95.9397 14.1067 96.6677 13.396C97.413 12.6853 98.3663 12.33 99.5277 12.33C100.654 12.33 101.556 12.6593 102.232 13.318C102.908 13.9593 103.246 14.7567 103.246 15.71C103.246 16.0913 103.142 16.3773 102.934 16.568C102.743 16.7587 102.492 16.854 102.18 16.854H97.6557C97.4823 16.854 97.4217 16.9493 97.4737 17.14C97.6123 17.6253 97.8897 18.0067 98.3057 18.284C98.739 18.544 99.2243 18.674 99.7617 18.674C100.16 18.674 100.542 18.622 100.906 18.518C101.287 18.414 101.616 18.258 101.894 18.05C101.98 17.9807 102.093 17.946 102.232 17.946C102.422 17.946 102.596 18.0327 102.752 18.206C102.908 18.362 102.986 18.5527 102.986 18.778C102.986 18.882 102.968 18.986 102.934 19.09C102.899 19.194 102.821 19.298 102.7 19.402C102.249 19.7313 101.764 19.9567 101.244 20.078C100.741 20.1993 100.23 20.26 99.7097 20.26ZM101.218 15.502C101.322 15.502 101.374 15.45 101.374 15.346C101.374 14.9473 101.192 14.6007 100.828 14.306C100.481 14.0113 100.048 13.864 99.5277 13.864C99.077 13.864 98.6437 13.9853 98.2277 14.228C97.829 14.4707 97.5863 14.7913 97.4997 15.19C97.4997 15.19 97.4997 15.1987 97.4997 15.216C97.4823 15.2853 97.4737 15.346 97.4737 15.398C97.491 15.45 97.569 15.476 97.7077 15.476L101.218 15.502ZM106.911 20.26C106.235 20.26 105.81 19.9393 105.637 19.298L104.051 13.474C104.033 13.422 104.025 13.37 104.025 13.318C104.025 13.266 104.025 13.2227 104.025 13.188C104.025 12.9453 104.103 12.746 104.259 12.59C104.432 12.4167 104.649 12.33 104.909 12.33C105.099 12.33 105.273 12.382 105.429 12.486C105.602 12.5727 105.706 12.7113 105.741 12.902L106.703 17.426C106.737 17.6167 106.815 17.712 106.937 17.712C107.058 17.712 107.145 17.6167 107.197 17.426L108.549 13.422C108.635 13.1793 108.783 13.006 108.991 12.902C109.199 12.7807 109.415 12.72 109.641 12.72C109.866 12.72 110.074 12.7807 110.265 12.902C110.473 13.006 110.611 13.1793 110.681 13.422L112.033 17.426C112.085 17.6167 112.171 17.712 112.293 17.712C112.414 17.712 112.492 17.6167 112.527 17.426L113.489 12.902C113.523 12.7113 113.619 12.5727 113.775 12.486C113.948 12.382 114.13 12.33 114.321 12.33C114.581 12.33 114.789 12.4167 114.945 12.59C115.118 12.746 115.205 12.9453 115.205 13.188C115.205 13.2227 115.205 13.266 115.205 13.318C115.205 13.37 115.196 13.422 115.179 13.474L113.593 19.298C113.419 19.9393 112.995 20.26 112.319 20.26C112.024 20.26 111.755 20.1733 111.513 20C111.287 19.8093 111.131 19.5753 111.045 19.298L109.849 15.502C109.779 15.2767 109.701 15.164 109.615 15.164C109.511 15.164 109.424 15.2767 109.355 15.502L108.185 19.298C108.098 19.5753 107.933 19.8093 107.691 20C107.465 20.1733 107.205 20.26 106.911 20.26ZM120.124 20.26C118.824 20.26 117.81 19.8873 117.082 19.142C116.354 18.3967 115.99 17.3913 115.99 16.126C115.99 15.0167 116.354 14.1067 117.082 13.396C117.827 12.6853 118.78 12.33 119.942 12.33C121.068 12.33 121.97 12.6593 122.646 13.318C123.322 13.9593 123.66 14.7567 123.66 15.71C123.66 16.0913 123.556 16.3773 123.348 16.568C123.157 16.7587 122.906 16.854 122.594 16.854H118.07C117.896 16.854 117.836 16.9493 117.888 17.14C118.026 17.6253 118.304 18.0067 118.72 18.284C119.153 18.544 119.638 18.674 120.176 18.674C120.574 18.674 120.956 18.622 121.32 18.518C121.701 18.414 122.03 18.258 122.308 18.05C122.394 17.9807 122.507 17.946 122.646 17.946C122.836 17.946 123.01 18.0327 123.166 18.206C123.322 18.362 123.4 18.5527 123.4 18.778C123.4 18.882 123.382 18.986 123.348 19.09C123.313 19.194 123.235 19.298 123.114 19.402C122.663 19.7313 122.178 19.9567 121.658 20.078C121.155 20.1993 120.644 20.26 120.124 20.26ZM121.632 15.502C121.736 15.502 121.788 15.45 121.788 15.346C121.788 14.9473 121.606 14.6007 121.242 14.306C120.895 14.0113 120.462 13.864 119.942 13.864C119.491 13.864 119.058 13.9853 118.642 14.228C118.243 14.4707 118 14.7913 117.914 15.19C117.914 15.19 117.914 15.1987 117.914 15.216C117.896 15.2853 117.888 15.346 117.888 15.398C117.905 15.45 117.983 15.476 118.122 15.476L121.632 15.502ZM126.103 20.26C125.877 20.26 125.669 20.1907 125.479 20.052C125.305 19.9133 125.219 19.714 125.219 19.454V9.574C125.219 9.27933 125.305 9.06267 125.479 8.924C125.669 8.768 125.877 8.69 126.103 8.69C126.328 8.69 126.527 8.768 126.701 8.924C126.891 9.06267 126.987 9.27933 126.987 9.574V19.454C126.987 19.714 126.891 19.9133 126.701 20.052C126.527 20.1907 126.328 20.26 126.103 20.26ZM130.897 16.152V19.454C130.897 19.714 130.802 19.9133 130.611 20.052C130.438 20.1907 130.238 20.26 130.013 20.26C129.788 20.26 129.58 20.1907 129.389 20.052C129.216 19.9133 129.129 19.714 129.129 19.454V13.344C129.129 13.0493 129.216 12.8327 129.389 12.694C129.58 12.538 129.788 12.46 130.013 12.46C130.238 12.46 130.438 12.538 130.611 12.694C130.802 12.8327 130.897 13.0493 130.897 13.344V13.448C131.14 13.1187 131.452 12.85 131.833 12.642C132.232 12.434 132.648 12.33 133.081 12.33C133.289 12.33 133.497 12.356 133.705 12.408C133.913 12.46 134.069 12.564 134.173 12.72C134.277 12.876 134.329 13.0493 134.329 13.24C134.329 13.4653 134.251 13.6733 134.095 13.864C133.956 14.0373 133.748 14.124 133.471 14.124C133.35 14.124 133.22 14.1067 133.081 14.072C132.96 14.0373 132.804 14.02 132.613 14.02C132.11 14.02 131.694 14.2107 131.365 14.592C131.053 14.9733 130.897 15.4933 130.897 16.152ZM134.722 13.214C134.722 12.9367 134.817 12.72 135.008 12.564C135.199 12.408 135.407 12.33 135.632 12.33C135.996 12.33 136.256 12.512 136.412 12.876L138.44 17.842C138.492 17.9807 138.587 18.05 138.726 18.05C138.865 18.05 138.96 17.9893 139.012 17.868L140.754 12.902C140.893 12.5207 141.161 12.33 141.56 12.33C141.803 12.33 142.019 12.408 142.21 12.564C142.418 12.72 142.522 12.9107 142.522 13.136C142.522 13.2227 142.496 13.344 142.444 13.5L138.466 23.198C138.327 23.5793 138.059 23.77 137.66 23.77C137.435 23.77 137.218 23.692 137.01 23.536C136.819 23.38 136.724 23.1893 136.724 22.964C136.724 22.7907 136.75 22.6693 136.802 22.6L138.076 20C137.712 19.9653 137.461 19.792 137.322 19.48L134.774 13.526C134.739 13.3873 134.722 13.2833 134.722 13.214Z" fill="#4B4B50"/>
<circle cx="156.289" cy="13.8776" r="6" transform="rotate(41.1897 156.289 13.8776)" fill="#26262A" stroke="#4B4B50" stroke-width="2"/>
<rect x="151.586" y="17.7343" width="2" height="10" rx="1" transform="rotate(41.1897 151.586 17.7343)" fill="#4B4B50"/>
</svg>
